<?xml version="1.0" encoding="utf-8"?>
<svg viewBox="0 0 451.48 125.32" width="451.48" height="125.32" xmlns="http://www.w3.org/2000/svg">
  <path d="m119.89 101.16-55 16.5v-22l55-16.5z" fill="#859900"/>
  <path d="m64.89 117.66-55-16.5v-22l55 16.5z" fill="#434d00"/>
  <path d="m64.89 95.66-55-16.5 55-16.5 55 16.5z" fill="#647300"/>
  <path d="m119.89 73.66-55 16.5v-22l55-16.5z" fill="#859900"/>
  <path d="m64.89 90.16-55-16.5v-22l55 16.5z" fill="#434d00"/>
  <path d="m64.89 68.16-55-16.5 55-16.5 55 16.5z" fill="#647300"/>
  <path d="m119.89 46.16-55 16.5v-22l55-16.5z" fill="#859900"/>
  <path d="m64.89 62.66-55-16.5v-22l55 16.5z" fill="#434d00"/>
  <path d="m64.89 40.66-55-16.5 55-16.5 55 16.5z" fill="#647300"/>
  <g fill="#1b1b1b">
    <path d="m173.83 43.66h-15.22v16.48h-8v-39.65h25.99v6.13h-18v10.92h15.22z"/>
    <path d="m204.1 55.78a10 10 0 0 1 -3.46 3.65 9.19 9.19 0 0 1 -4.87 1.28 9 9 0 0 1 -7.29-3.16q-2.62-3.15-2.62-9.8v-17.07h7.92v17.12q0 3.87 1.05 5.3a3.77 3.77 0 0 0 3.25 1.43 8.09 8.09 0 0 0 3.27-.61 5.5 5.5 0 0 0 2.23-1.82v-21.42h7.95v29.46h-6.59z"/>
    <path d="m231.46 60.14h-8v-42.48h8z"/>
    <path d="m251.93 60.14h-8v-42.48h8z"/>
    <path d="m285.31 49.79a4.66 4.66 0 0 0 -1.59-3.68 16.27 16.27 0 0 0 -5.6-2.61c-4.57-1.38-8.05-3-10.41-4.87a9.23 9.23 0 0 1 -3.56-7.63 9.65 9.65 0 0 1 4-8 16.25 16.25 0 0 1 10.22-3.09q6.58 0 10.6 3.32a10.4 10.4 0 0 1 3.88 8.77l-.05.16h-7.71a5.76 5.76 0 0 0 -1.8-4.56 7.32 7.32 0 0 0 -5-1.6 6.68 6.68 0 0 0 -4.55 1.42 4.61 4.61 0 0 0 -1.64 3.58 3.93 3.93 0 0 0 1.75 3.31 23.19 23.19 0 0 0 6 2.74q6.54 1.85 10 4.83a9.9 9.9 0 0 1 3.43 7.86 9.44 9.44 0 0 1 -4 8q-4 2.94-10.51 2.94a18.73 18.73 0 0 1 -11-3.19q-4.59-3.18-4.45-9.5l.05-.16h7.71a6.23 6.23 0 0 0 2.09 5.17 8.65 8.65 0 0 0 5.6 1.66 7.68 7.68 0 0 0 4.87-1.33 4.35 4.35 0 0 0 1.67-3.54z"/>
    <path d="m313.62 23.46v7.22h5v5.58h-5v15a3.43 3.43 0 0 0 .72 2.45 2.57 2.57 0 0 0 1.9.74 8.55 8.55 0 0 0 1.09-.07 10.42 10.42 0 0 0 1.06-.23l.65 5.74a15.45 15.45 0 0 1 -2.33.61 13.43 13.43 0 0 1 -2.46.21 8.46 8.46 0 0 1 -6.33-2.26c-1.48-1.51-2.22-3.89-2.22-7.16v-15h-4.3v-5.61h4.3v-7.22z"/>
    <path d="m346.46 60.14a16.67 16.67 0 0 1 -.75-2.13 14.37 14.37 0 0 1 -.45-2.28 11 11 0 0 1 -3.26 3.56 8.09 8.09 0 0 1 -4.79 1.42q-4.64 0-7.14-2.38a8.55 8.55 0 0 1 -2.5-6.5 7.78 7.78 0 0 1 3.33-6.71q3.33-2.38 9.74-2.38h4.46v-2.34a4.61 4.61 0 0 0 -1.1-3.3 4.41 4.41 0 0 0 -3.33-1.17 4.3 4.3 0 0 0 -3 .94 3.27 3.27 0 0 0 -1.05 2.57h-7.62l-.05-.16a7.45 7.45 0 0 1 3.25-6.44 14.13 14.13 0 0 1 9-2.71 13.19 13.19 0 0 1 8.59 2.67 9.29 9.29 0 0 1 3.28 7.65v12.17a23 23 0 0 0 .32 3.9 19.3 19.3 0 0 0 1 3.62zm-7.27-5.31a6.79 6.79 0 0 0 3.7-1 5.59 5.59 0 0 0 2.23-2.39v-4.21h-4.46a5.32 5.32 0 0 0 -3.83 1.25 4.13 4.13 0 0 0 -1.29 3.08 3.07 3.07 0 0 0 1 2.38 3.85 3.85 0 0 0 2.65.89z"/>
    <path d="m376.92 54.61a4.39 4.39 0 0 0 3.29-1.24 4.48 4.48 0 0 0 1.23-3.31h7.24l.06.17a9.25 9.25 0 0 1 -3.32 7.47 12.41 12.41 0 0 1 -8.5 3q-6.54 0-10.1-4.18a15.89 15.89 0 0 1 -3.57-10.69v-.83a16 16 0 0 1 3.55-10.69q3.56-4.22 10.07-4.21a12.17 12.17 0 0 1 8.68 3.1 10.39 10.39 0 0 1 3.19 8.17l-.06.17h-7.24a5.87 5.87 0 0 0 -1.21-3.8 4.07 4.07 0 0 0 -3.36-1.51 4.53 4.53 0 0 0 -4.37 2.46 13.43 13.43 0 0 0 -1.3 6.31v.81a13.39 13.39 0 0 0 1.3 6.35 4.59 4.59 0 0 0 4.42 2.45z"/>
    <path d="m408.91 47.8h-2v12.34h-7.95v-42.48h7.95v24.1h1.77l7.06-11.08h9.2l-9.61 13.42 10.9 16h-9.15z"/>
    <path d="m177.39 92.83q0 6.83-3.75 11a12.75 12.75 0 0 1 -10 4.22 12.53 12.53 0 0 1 -9.9-4.22q-3.69-4.22-3.69-11v-5.75q0-6.81 3.68-11a12.43 12.43 0 0 1 9.89-4.24 12.74 12.74 0 0 1 10 4.24q3.76 4.23 3.76 11zm-2.89-5.83q0-5.73-2.89-9.21a9.86 9.86 0 0 0 -8-3.49 9.5 9.5 0 0 0 -7.85 3.49q-2.82 3.48-2.81 9.21v5.79q0 5.76 2.82 9.25a9.53 9.53 0 0 0 7.86 3.49 9.83 9.83 0 0 0 8-3.48q2.88-3.48 2.87-9.26z"/>
    <path d="m205.82 95.2q0 5.88-2.67 9.39a8.71 8.71 0 0 1 -7.34 3.5 10.64 10.64 0 0 1 -4.81-1 8.93 8.93 0 0 1 -3.38-3v13.57h-2.9v-36.29h2.28l.53 4.09a9.39 9.39 0 0 1 3.39-3.38 9.64 9.64 0 0 1 4.9-1.2 8.54 8.54 0 0 1 7.38 3.77q2.67 3.76 2.67 10zm-2.91-.51a15.07 15.07 0 0 0 -2-8.14 6.47 6.47 0 0 0 -5.82-3.15 7.61 7.61 0 0 0 -4.71 1.38 8.71 8.71 0 0 0 -2.78 3.59v12.69a8.1 8.1 0 0 0 2.89 3.36 8.33 8.33 0 0 0 4.65 1.22 6.58 6.58 0 0 0 5.78-2.86 13.13 13.13 0 0 0 2-7.58z"/>
    <path d="m217.36 74.65v6.72h5.77v2.37h-5.77v17.08a5.55 5.55 0 0 0 .94 3.65 3.11 3.11 0 0 0 2.48 1.08 6.94 6.94 0 0 0 1-.07c.33 0 .72-.1 1.17-.2l.44 2.15a5.78 5.78 0 0 1 -1.44.48 8.28 8.28 0 0 1 -1.71.18 5.45 5.45 0 0 1 -4.3-1.74q-1.54-1.75-1.54-5.53v-17.08h-4.5v-2.37h4.53v-6.72z"/>
    <path d="m232.54 73.85h-2.88v-4.07h2.88zm0 33.73h-2.88v-26.21h2.88z"/>
    <path d="m243.53 81.37.27 4.31a9.22 9.22 0 0 1 3.35-3.54 9.5 9.5 0 0 1 5-1.26 8.44 8.44 0 0 1 5 1.44 8 8 0 0 1 2.88 4.4 10 10 0 0 1 3.38-4.29 8.94 8.94 0 0 1 5.29-1.55 7.89 7.89 0 0 1 6.48 2.79q2.29 2.79 2.29 8.62v15.29h-2.9v-15.34c0-3.23-.58-5.51-1.72-6.84a6 6 0 0 0 -4.75-2 6.57 6.57 0 0 0 -5.14 2 9.8 9.8 0 0 0 -2.3 5.23v.53s0 .4 0 .68v15.72h-2.93v-15.32c0-3.16-.58-5.43-1.73-6.79a5.89 5.89 0 0 0 -4.76-2 7.21 7.21 0 0 0 -4.86 1.54 8.17 8.17 0 0 0 -2.53 4.15v18.49h-2.85v-26.26z"/>
    <path d="m288.77 73.85h-2.88v-4.07h2.88zm0 33.73h-2.88v-26.21h2.88z"/>
    <path d="m299.23 105.13h17v2.45h-20.59v-2.13l15.8-21.59h-15.31v-2.49h19v2.15z"/>
    <path d="m338.66 107.58c-.18-.92-.31-1.71-.4-2.37a15.2 15.2 0 0 1 -.13-2 10.75 10.75 0 0 1 -3.81 3.53 11.23 11.23 0 0 1 -5.62 1.39 8.21 8.21 0 0 1 -6-2 7.38 7.38 0 0 1 -2.12-5.56 6.68 6.68 0 0 1 3.08-5.69 13.46 13.46 0 0 1 8-2.18h6.45v-3.34a5.66 5.66 0 0 0 -1.76-4.36 7.32 7.32 0 0 0 -5-1.6 7.5 7.5 0 0 0 -4.81 1.46 4.46 4.46 0 0 0 -1.83 3.65h-2.71l-.05-.14a6.25 6.25 0 0 1 2.53-5.2 10.57 10.57 0 0 1 7-2.24 10.38 10.38 0 0 1 6.93 2.21 7.78 7.78 0 0 1 2.59 6.27v12.89a21.48 21.48 0 0 0 .16 2.69 16.73 16.73 0 0 0 .52 2.59zm-9.66-2.06a10.38 10.38 0 0 0 5.79-1.59 7.87 7.87 0 0 0 3.32-4.08v-5h-6.47a9.64 9.64 0 0 0 -5.84 1.68 4.91 4.91 0 0 0 -2.3 4.06 4.66 4.66 0 0 0 1.46 3.58 5.69 5.69 0 0 0 4.04 1.35z"/>
    <path d="m353.77 74.65v6.72h5.76v2.37h-5.76v17.08a5.62 5.62 0 0 0 .93 3.65 3.11 3.11 0 0 0 2.48 1.08 6.85 6.85 0 0 0 1-.07c.33 0 .72-.1 1.18-.2l.43 2.15a5.78 5.78 0 0 1 -1.44.48 8.28 8.28 0 0 1 -1.71.18 5.45 5.45 0 0 1 -4.3-1.74c-1-1.17-1.54-3-1.54-5.53v-17.08h-4.5v-2.37h4.53v-6.72z"/>
    <path d="m368.94 73.85h-2.88v-4.07h2.88zm0 33.73h-2.88v-26.21h2.88z"/>
    <path d="m375.84 94.09a14.07 14.07 0 0 1 3.17-9.5 11.41 11.41 0 0 1 16.84 0 14.12 14.12 0 0 1 3.17 9.5v.79a14.09 14.09 0 0 1 -3.16 9.51 11.44 11.44 0 0 1 -16.85 0 14 14 0 0 1 -3.17-9.51zm2.9.79a12.47 12.47 0 0 0 2.31 7.66 8.14 8.14 0 0 0 12.78 0 12.47 12.47 0 0 0 2.31-7.66v-.79a12.39 12.39 0 0 0 -2.33-7.61 8.07 8.07 0 0 0 -12.76 0 12.44 12.44 0 0 0 -2.31 7.61z"/>
    <path d="m408.14 81.37.27 4.55a9.63 9.63 0 0 1 3.42-3.72 9.42 9.42 0 0 1 5.06-1.32 8.06 8.06 0 0 1 6.49 2.61q2.24 2.6 2.23 8.12v16h-2.9v-15.97c0-3-.57-5.13-1.69-6.37a6.09 6.09 0 0 0 -4.78-1.87 7.76 7.76 0 0 0 -5 1.53 8.51 8.51 0 0 0 -2.76 4.07v18.56h-2.9v-26.19z"/>
  </g>
</svg>